<?xml version="1.0" encoding="iso-8859-1"?>
<!-- Uploaded to: SVG Repo, www.svgrepo.com, Generator: SVG Repo Mixer Tools -->
<svg fill="#4bad21" height="800px" width="800px" version="1.1" id="Layer_1" xmlns="http://www.w3.org/2000/svg" xmlns:xlink="http://www.w3.org/1999/xlink" 
	 viewBox="0 0 512 512" xml:space="preserve">
<g>
	<g>
		<path d="M379.259,284.398H132.741c-5.236,0-9.481,4.264-9.481,9.505c0,73.194,59.546,132.752,132.741,132.752
			s132.741-59.565,132.741-132.759C388.741,288.655,384.495,284.398,379.259,284.398z M256,407.704
			c-18.214,0-35.432-4.322-50.712-11.963c9.598-15.769,29.05-25.963,50.712-25.963c21.734,0,41.147,10.171,50.729,25.954
			C291.446,403.38,274.221,407.704,256,407.704z M322.905,385.84c-13.015-21.324-38.561-35.037-66.905-35.037
			c-28.253,0-53.868,13.727-66.9,35.035c-25.982-18.958-43.68-49.292-46.484-82.477h226.769
			C366.58,336.546,348.884,366.882,322.905,385.84z"/>
	</g>
</g>
<g>
	<g>
		<path d="M151.704,85.333c-41.824,0-75.852,34.028-75.852,75.852c0,41.824,34.028,75.852,75.852,75.852
			c41.824,0,75.852-34.028,75.852-75.852C227.556,119.361,193.528,85.333,151.704,85.333z M151.704,218.074
			c-31.37,0-56.889-25.518-56.889-56.889c0-31.37,25.518-56.889,56.889-56.889c31.37,0,56.889,25.519,56.889,56.889
			C208.593,192.556,183.074,218.074,151.704,218.074z"/>
	</g>
</g>
<g>
	<g>
		<path d="M151.704,132.741c-15.685,0-28.444,12.759-28.444,28.444c0,15.685,12.759,28.444,28.444,28.444
			c15.685,0,28.444-12.759,28.444-28.444C180.148,145.5,167.389,132.741,151.704,132.741z M151.704,170.667
			c-5.227,0-9.482-4.25-9.482-9.482c0-5.231,4.255-9.482,9.482-9.482c5.227,0,9.481,4.25,9.481,9.482
			C161.185,166.417,156.931,170.667,151.704,170.667z"/>
	</g>
</g>
<g>
	<g>
		<path d="M360.296,85.333c-41.824,0-75.852,34.028-75.852,75.852c0,41.824,34.028,75.852,75.852,75.852
			c41.824,0,75.852-34.028,75.852-75.852C436.148,119.361,402.12,85.333,360.296,85.333z M360.296,218.074
			c-31.37,0-56.889-25.518-56.889-56.889c0-31.37,25.518-56.889,56.889-56.889c31.37,0,56.889,25.519,56.889,56.889
			C417.185,192.556,391.667,218.074,360.296,218.074z"/>
	</g>
</g>
<g>
	<g>
		<path d="M360.296,132.741c-15.685,0-28.444,12.759-28.444,28.444c0,15.685,12.759,28.444,28.444,28.444
			c15.685,0,28.444-12.759,28.444-28.444S375.982,132.741,360.296,132.741z M360.296,170.667c-5.227,0-9.482-4.25-9.482-9.482
			c0-5.231,4.255-9.482,9.482-9.482c5.227,0,9.481,4.25,9.481,9.482C369.778,166.417,365.523,170.667,360.296,170.667z"/>
	</g>
</g>
<g>
	<g>
		<path d="M256,0C114.843,0,0,114.843,0,256c0,141.157,114.843,256,256,256s256-114.843,256-256C512,114.843,397.157,0,256,0z
			 M256,493.037C125.296,493.037,18.963,386.704,18.963,256C18.963,125.296,125.296,18.963,256,18.963S493.037,125.296,493.037,256
			C493.037,386.704,386.704,493.037,256,493.037z"/>
	</g>
</g>
</svg>